<svg xmlns="http://www.w3.org/2000/svg" width="1600" height="900" viewBox="0 0 1600 900" role="img" aria-labelledby="title desc">
  <title id="title">Foreign Assets Information in AIS</title>
  <desc id="desc">Indian taxpayer reviewing the new Foreign Assets Information report in AIS before filing an income-tax return.</desc>
  <defs>
    <linearGradient id="bg" x1="0" y1="0" x2="1" y2="1">
      <stop offset="0" stop-color="#0a2040"/>
      <stop offset="1" stop-color="#07505b"/>
    </linearGradient>
    <filter id="shadow"><feDropShadow dx="0" dy="18" stdDeviation="20" flood-opacity=".22"/></filter>
  </defs>
  <rect width="1600" height="900" fill="url(#bg)"/>
  <circle cx="1320" cy="170" r="330" fill="#1d7d7c" opacity=".55"/>
  <g fill="none" stroke="#82d6c4" stroke-width="4" opacity=".8">
    <ellipse cx="1320" cy="170" rx="300" ry="300"/>
    <ellipse cx="1320" cy="170" rx="160" ry="300"/>
    <ellipse cx="1320" cy="170" rx="45" ry="300"/>
    <ellipse cx="1320" cy="170" rx="300" ry="110"/>
    <ellipse cx="1320" cy="170" rx="300" ry="220"/>
  </g>
  <g transform="translate(80 60)">
    <circle cx="24" cy="24" r="24" fill="#1a8e68"/>
    <text x="24" y="34" fill="#fff" text-anchor="middle" font-size="28" font-weight="700" font-family="Arial, sans-serif">₹</text>
    <text x="62" y="33" fill="#fff" font-size="28" font-weight="700" font-family="Arial, sans-serif">RupeeKit</text>
  </g>
  <text x="80" y="230" fill="#fff" font-size="86" font-weight="800" font-family="Arial, sans-serif">Foreign Assets in AIS</text>
  <text x="80" y="315" fill="#dceef2" font-size="38" font-family="Arial, sans-serif">CBDT’s new view can help taxpayers cross-check</text>
  <text x="80" y="365" fill="#dceef2" font-size="38" font-family="Arial, sans-serif">foreign bank accounts, investments and income.</text>
  <rect x="80" y="485" width="720" height="105" rx="28" fill="#ffffff" opacity=".12" stroke="#9adfd1" stroke-width="2"/>
  <text x="120" y="550" fill="#fff" font-size="31" font-weight="700" font-family="Arial, sans-serif">Not a tax notice. A taxpayer-support feature.</text>
  <g transform="translate(1010 330)" filter="url(#shadow)">
    <ellipse cx="135" cy="85" rx="70" ry="85" fill="#e0a078"/>
    <path d="M65 77c10-80 130-90 145 5v-40c-25-70-125-70-145 0z" fill="#2a1f1f"/>
    <circle cx="112" cy="82" r="6" fill="#12253f"/><circle cx="157" cy="82" r="6" fill="#12253f"/>
    <path d="M115 113q20 18 40 0" fill="none" stroke="#12253f" stroke-width="5" stroke-linecap="round"/>
    <rect x="20" y="160" width="230" height="260" rx="70" fill="#f4bf3e"/>
    <rect x="-40" y="295" width="350" height="38" rx="18" fill="#0a2040"/>
    <rect x="10" y="190" width="250" height="130" rx="18" fill="#143864"/>
    <rect x="26" y="207" width="218" height="96" rx="12" fill="#e2f0ff"/>
  </g>
  <g transform="translate(1280 505)" filter="url(#shadow)">
    <rect width="250" height="265" rx="30" fill="#fff"/>
    <text x="125" y="60" text-anchor="middle" fill="#0a2040" font-size="44" font-weight="800" font-family="Arial, sans-serif">AIS</text>
    <text x="125" y="105" text-anchor="middle" fill="#1a8e68" font-size="28" font-weight="700" font-family="Arial, sans-serif">Reports</text>
    <rect x="28" y="135" width="194" height="34" rx="12" fill="#e5f1f8"/>
    <rect x="28" y="181" width="194" height="34" rx="12" fill="#eaf8f2"/>
    <rect x="28" y="227" width="194" height="24" rx="10" fill="#e5f1f8"/>
  </g>
</svg>